<svg viewBox="0 0 93 26" xmlns="http://www.w3.org/2000/svg" width="93" height="26">
  <path d="M92.27 25.14l-.006.002c-1.473-.213-2.95-.414-4.428-.607l-2.84-7.43-2.87 6.74c-1.358-.152-2.72-.296-4.083-.43l4.932-11.595L78.457.002h4.204l2.53 6.614L88.002.002h4.267L87.21 11.9l5.06 13.24zM71.26.002h3.885V23.14c-1.294-.117-2.59-.226-3.885-.326V.002zM57.506 0h3.886v18.315c2.227.105 4.45.232 6.664.382v3.883c-3.502-.237-7.02-.417-10.55-.54V0zm-9.452 8.998h5.267l.002 3.883h-5.268v8.966H44.17V.003h10.846V3.92h-6.962v5.078zM37.611 21.953c-1.296.034-2.59.075-3.884.125V3.92H29.66V.002h12.018V3.92H37.61v18.033zM16.376.003h10.793V3.92H20.26v5.307c1.588-.02 3.844-.044 5.248-.04v3.883c-1.757-.022-3.74.024-5.247.04v5.878c2.296-.183 4.6-.343 6.908-.48v3.885c-3.614.21-7.212.483-10.793.813V.002zM3.885 10.934v13.67c-1.297.172-2.592.35-3.885.538V.003h3.693l5.06 14.226V0h3.886v23.57c-1.422.15-2.84.306-4.255.473l-4.5-13.11z" fill="#e50913"/>
</svg>
